PathFileType        4      (X/Y/Z)      C:\Users\cpontonn\Documents\TRAVAIL - COURS\DIGISPORT\Partage Nico\Partage Nico DIGISPORT\TP OPENSIM - eleves - work\DATA\transformed_Marche0007.trc         
DataRate	CameraRate	NumFrames	NumMarkers	Units	OrigDataRate	OrigDataStartFrame	OrigNumFrames
100.0	100.0	4	38	mm	100.0	311	414
Frame#	Time	LFHD			LBHD			RFHD			RBHD			C7			T10			CLAV			STRN			LSHO			LRAD			LHUM			LWRB			LWRA			LCAR			RSHO			RRAD			RHUM			RWRB			RWRA			RCAR			LFWT			LBWT			RFWT			RBWT			LKNE			LKNI			LANE			LHEE			LANI			LTAR			LTOE			RKNE			RKNI			RANE			RHEE			RANI			RTAR			RTOE			
		X1	Y1	Z1	X2	Y2	Z2	X3	Y3	Z3	X4	Y4	Z4	X5	Y5	Z5	X6	Y6	Z6	X7	Y7	Z7	X8	Y8	Z8	X9	Y9	Z9	X10	Y10	Z10	X11	Y11	Z11	X12	Y12	Z12	X13	Y13	Z13	X14	Y14	Z14	X15	Y15	Z15	X16	Y16	Z16	X17	Y17	Z17	X18	Y18	Z18	X19	Y19	Z19	X20	Y20	Z20	X21	Y21	Z21	X22	Y22	Z22	X23	Y23	Z23	X24	Y24	Z24	X25	Y25	Z25	X26	Y26	Z26	X27	Y27	Z27	X28	Y28	Z28	X29	Y29	Z29	X30	Y30	Z30	X31	Y31	Z31	X32	Y32	Z32	X33	Y33	Z33	X34	Y34	Z34	X35	Y35	Z35	X36	Y36	Z36	X37	Y37	Z37	X38	Y38	Z38	
311	3.1	1594.98645	1675.67981	201.9469000000003	1453.81775	1721.5282	202.7287100000003	1599.87122	1681.34265	338.76212000000027	1443.44189	1725.36218	328.0231000000003	1333.44226	1621.50134	279.4193700000003	1209.59705	1417.06958	272.0497100000003	1434.55664	1513.77856	301.4204700000003	1432.06494	1337.00769	314.34100000000024	1404.60852	1569.70654	89.81570000000028	1354.68958	1200.53088	16.91471000000024	1327.3158	1206.06299	79.01505000000023	1518.75476	999.07001	18.932380000000244	1557.57849	1026.08032	80.63205000000025	1601.69958	962.07501	24.158960000000256	1349.7655	1575.65796	476.08725000000027	1177.85437	1244.04053	543.4677100000002	1157.44885	1259.68274	488.9674400000002	1178.86218	983.28979	571.0267900000002	1221.10144	971.36151	513.0758700000002	1196.53735	896.34686	567.8963600000001	1443.25867	1072.00989	229.88071000000022	1242.85999	1109.05249	272.33731000000023	1417.26782	1074.90833	417.43106000000023	1231.15698	1105.8186	352.71149000000025	1386.21509	555.15662	182.1477800000002	1379.79724	524.41046	296.2045900000002	1345.87341	102.93464999999999	228.41100000000017	1260.09595	27.215819999999983	276.58405000000016	1343.85925	112.95426999999998	318.26392000000016	1500.99585	46.80489999999999	217.20970000000017	1548.70386	46.42953999999998	304.1619900000002	1469.85413	573.44092	478.3606600000002	1477.85999	524.53253	381.59744000000023	1232.72644	171.81727999999998	451.70615000000015	1148.43237	133.41260999999997	377.2242700000001	1273.69336	181.84217999999998	370.21088000000015	1344.94409	59.16671999999997	510.31689000000017	1413.25635	36.59654999999997	438.6406900000002	
312	3.11	1607.97705	1677.91077	202.9229600000003	1466.38269	1723.05103	203.9608000000003	1612.92065	1682.99231	339.7245500000003	1456.26489	1726.24585	329.25735000000026	1346.78137	1622.50818	280.3651100000003	1223.0304	1418.14343	272.4529700000003	1447.9386	1514.76331	302.0234100000003	1445.59253	1338.09937	314.4103700000002	1417.65295	1571.48572	90.60120000000028	1369.05566	1202.62085	14.65378000000024	1342.17798	1207.36975	77.33475000000024	1539.07666	1005.11194	17.856530000000248	1577.02832	1033.46606	79.51883000000025	1623.10767	970.51654	23.37890000000026	1363.18396	1576.255	476.85281000000026	1189.2771	1245.46057	542.5368700000002	1169.38538	1261.25244	487.86090000000024	1188.67932	984.60114	569.4824800000002	1231.65259	972.6131	512.0769700000002	1206.2312	897.64374	566.5797700000002	1455.83594	1072.32837	229.23840000000024	1255.75427	1109.90112	272.6431300000002	1430.67651	1075.80017	416.8891900000002	1244.27466	1106.6051	353.07501000000025	1390.63586	555.25348	181.9863000000002	1382.64148	524.26709	296.2423700000002	1346.18262	103.07387999999999	228.38914000000017	1260.17114	27.49984999999998	276.57266000000016	1344.03345	113.08270999999999	318.27594000000016	1500.88953	46.82320999999999	217.45721000000017	1548.89905	46.02656999999998	304.14462000000015	1489.14868	576.76575	477.9135100000002	1498.63416	528.11078	381.45663000000025	1273.82568	162.47715999999997	452.22794000000016	1192.76196	118.43522999999998	377.92136000000016	1313.27869	173.87913999999998	370.16913000000017	1391.84094	57.83317999999997	512.9439700000001	1461.93103	38.58554999999997	442.14417000000014	
313	3.12	1621.00964	1679.84558	203.98569000000032	1479.09595	1724.20178	205.19212000000027	1625.93481	1684.3811	340.73685000000035	1469.04321	1726.83716	330.56573000000026	1360.15027	1623.20752	281.4044500000003	1236.47437	1418.86426	272.9033200000003	1461.29736	1515.43604	302.6392200000003	1459.14099	1338.80981	314.47687000000025	1430.73877	1572.92017	91.46217000000027	1384.06262	1204.31604	12.876730000000244	1356.96484	1208.42993	75.73793000000025	1559.02441	1010.85181	16.724010000000252	1595.97266	1040.41357	78.51373000000025	1643.02991	978.29681	22.938980000000264	1376.70215	1576.48145	477.6580200000003	1200.87708	1246.46521	541.7173500000002	1181.4292	1262.44824	486.89301000000023	1198.8335	985.56323	568.0759300000002	1242.49792	973.4964	511.2123400000002	1216.21252	898.55493	565.4257800000001	1468.39917	1072.4502	228.68207000000024	1268.57971	1110.55688	272.93448000000024	1444.10974	1076.3186	416.47302000000025	1257.39502	1107.1499	353.39935000000025	1393.53308	554.92883	182.3456700000002	1385.65674	524.20648	296.39175000000023	1345.77258	103.15689999999998	228.73509000000018	1260.14465	27.827129999999983	276.52029000000016	1343.86975	113.23297999999998	318.0751000000002	1501.27417	46.41789999999999	217.26036000000016	1548.95569	45.48809999999998	304.20248000000015	1507.88086	579.48199	477.61865000000023	1518.59619	530.99878	381.5602100000002	1314.97083	153.97883999999996	452.7510100000002	1237.24036	104.49777999999998	378.3451200000002	1355.38367	166.56759999999997	370.40860000000015	1438.6825	57.17540999999997	515.2683100000003	1510.34595	41.49900999999997	445.2052600000002	
314	3.13	1634.06262	1681.50171	205.1210600000003	1491.78455	1725.04761	206.45038000000028	1638.9314	1685.46484	341.77737000000036	1481.83496	1727.07397	331.8086500000003	1373.55591	1623.5332	282.4212000000003	1249.88916	1419.31116	273.4532200000003	1474.71753	1515.78162	303.25577000000027	1472.60046	1339.14648	314.55862000000025	1443.78931	1574.00635	92.36147000000027	1398.94739	1205.74353	11.205480000000245	1371.67554	1209.23865	74.21838000000024	1578.48694	1016.21527	15.736680000000256	1614.49255	1046.90894	77.60249000000027	1663.41028	985.96387	22.290380000000262	1390.30054	1576.38354	478.50314000000026	1212.66162	1247.09241	540.9857200000002	1193.67322	1263.23608	486.0515400000002	1209.18274	986.13	566.8125600000002	1253.43604	973.96222	510.42282000000023	1226.39709	899.15649	564.3519900000001	1480.98999	1072.32031	228.21472000000023	1281.54468	1110.95959	273.2507900000002	1457.57251	1076.45667	416.09732000000025	1270.60156	1107.40356	353.64328000000023	1397.3457	554.68408	182.5602300000002	1388.84778	524.20117	296.58478000000025	1346.77649	103.38893999999999	228.57401000000016	1260.23425	28.071669999999983	276.5789500000002	1345.03967	113.28232999999999	319.0694300000002	1500.62305	45.63057999999999	217.48097000000018	1549.10803	44.950899999999976	304.28580000000017	1526.17773	581.83551	477.52640000000025	1538.38159	533.62445	381.7147500000002	1356.78418	145.80568999999997	453.6801800000002	1282.4292	91.53981999999998	378.65186000000017	1395.27148	160.50463999999997	372.04965000000016	1485.49414	57.159259999999975	517.2995000000002	1558.26477	45.22679999999997	447.7760000000002	
